PathFileType	4	(X/Y/Z)	C:\Users\italobelli\Desktop\GitHub\PTbot_officialCBL\Personal_Results\FLX01_noisy2.trc
DataRate	CameraRate	NumFrames	NumMarkers	Units	OrigDataRate	OrigDataStartFrame	OrigNumFrames
106.533333	106.533333	25	9	m	106.533333	401	800
Frame#	Time		gu		centelbow		EpL		centpxt8		centijc7		ij		ts		aa		ai
			X1	Y1	Z1	X2	Y2	Z2	X3	Y3	Z3	X4	Y4	Z4	X5	Y5	Z5	X6	Y6	Z6	X7	Y7	Z7	X8	Y8	Z8	X9	Y9	Z9

401	3.7547	-0.10078	0.060895	0.09756	-0.0046465	0.2775	0.18564	-0.031292	0.28941	0.17143	-0.046816	-0.15316	-0.008669	-0.046816	0.031938	-0.008669	0	0	0	-0.14338	-0.0239	0.057302	-0.1369	0.084569	0.10668	-0.11544	-0.065773	0.15899
402	3.7641	-0.10081	0.060889	0.09764	-0.0040401	0.2771	0.18574	-0.030677	0.28907	0.17157	-0.046816	-0.15316	-0.008669	-0.046816	0.031938	-0.008669	0	0	0	-0.14349	-0.023837	0.05727	-0.13689	0.08458	0.10675	-0.11557	-0.065822	0.15891
403	3.7735	-0.10085	0.060884	0.097722	-0.0034211	0.27668	0.18585	-0.030048	0.28873	0.17172	-0.046816	-0.15316	-0.008669	-0.046816	0.031938	-0.008669	0	0	0	-0.1436	-0.023773	0.057238	-0.13688	0.084591	0.10681	-0.11569	-0.065873	0.15883
404	3.7829	-0.10088	0.060879	0.097806	-0.0027895	0.27626	0.18595	-0.029406	0.28839	0.17186	-0.046816	-0.15316	-0.008669	-0.046816	0.031938	-0.008669	0	0	0	-0.14371	-0.023707	0.057206	-0.13687	0.084601	0.10688	-0.11582	-0.065927	0.15874
405	3.7922	-0.10091	0.060874	0.097892	-0.0021454	0.27583	0.18606	-0.028749	0.28804	0.17201	-0.046816	-0.15316	-0.008669	-0.046816	0.031938	-0.008669	0	0	0	-0.14383	-0.02364	0.057174	-0.13686	0.084611	0.10695	-0.11594	-0.065983	0.15865
406	3.8016	-0.10094	0.060868	0.09798	-0.0014889	0.27539	0.18618	-0.028079	0.28768	0.17217	-0.046816	-0.15316	-0.008669	-0.046816	0.031938	-0.008669	0	0	0	-0.14395	-0.023572	0.057141	-0.13684	0.084621	0.10702	-0.11607	-0.066041	0.15856
407	3.811	-0.10097	0.060863	0.09807	-0.00082006	0.27495	0.18629	-0.027396	0.28732	0.17232	-0.046816	-0.15316	-0.008669	-0.046816	0.031938	-0.008669	0	0	0	-0.14406	-0.023502	0.057108	-0.13682	0.084631	0.10709	-0.1162	-0.066102	0.15847
408	3.8204	-0.101	0.060858	0.098162	-0.00013896	0.2745	0.18641	-0.026699	0.28695	0.17249	-0.046816	-0.15316	-0.008669	-0.046816	0.031938	-0.008669	0	0	0	-0.14419	-0.02343	0.057076	-0.13681	0.084641	0.10716	-0.11634	-0.066166	0.15838
409	3.8298	-0.10103	0.060853	0.098255	0.00055432	0.27404	0.18653	-0.025988	0.28658	0.17265	-0.046816	-0.15316	-0.008669	-0.046816	0.031938	-0.008669	0	0	0	-0.14431	-0.023357	0.057043	-0.13678	0.084651	0.10724	-0.11647	-0.066232	0.15829
410	3.8392	-0.10106	0.060848	0.09835	0.0012597	0.27358	0.18665	-0.025263	0.2862	0.17282	-0.046816	-0.15316	-0.008669	-0.046816	0.031938	-0.008669	0	0	0	-0.14443	-0.023283	0.05701	-0.13676	0.08466	0.10732	-0.11661	-0.066301	0.15819
411	3.8486	-0.10109	0.060842	0.098447	0.0019771	0.27311	0.18677	-0.024526	0.28582	0.173	-0.046816	-0.15316	-0.008669	-0.046816	0.031938	-0.008669	0	0	0	-0.14455	-0.023208	0.056977	-0.13674	0.084669	0.1074	-0.11674	-0.066372	0.1581
412	3.8579	-0.10112	0.060838	0.098545	0.0027064	0.27263	0.18689	-0.023774	0.28544	0.17317	-0.046816	-0.15316	-0.008669	-0.046816	0.031938	-0.008669	0	0	0	-0.14468	-0.023131	0.056945	-0.13671	0.084678	0.10748	-0.11688	-0.066445	0.158
413	3.8673	-0.10115	0.060833	0.098645	0.0034476	0.27215	0.18702	-0.02301	0.28505	0.17336	-0.046816	-0.15316	-0.008669	-0.046816	0.031938	-0.008669	0	0	0	-0.14481	-0.023052	0.056912	-0.13668	0.084687	0.10756	-0.11702	-0.066522	0.1579
414	3.8767	-0.10118	0.060828	0.098746	0.0042006	0.27166	0.18715	-0.022231	0.28465	0.17354	-0.046816	-0.15316	-0.008669	-0.046816	0.031938	-0.008669	0	0	0	-0.14493	-0.022973	0.056879	-0.13664	0.084696	0.10764	-0.11716	-0.066601	0.1578
415	3.8861	-0.1012	0.060823	0.098849	0.0049653	0.27116	0.18728	-0.02144	0.28425	0.17374	-0.046816	-0.15316	-0.008669	-0.046816	0.031938	-0.008669	0	0	0	-0.14506	-0.022892	0.056847	-0.13661	0.084705	0.10773	-0.1173	-0.066682	0.1577
416	3.8955	-0.10123	0.060819	0.098953	0.0057415	0.27066	0.18742	-0.020635	0.28385	0.17393	-0.046816	-0.15316	-0.008669	-0.046816	0.031938	-0.008669	0	0	0	-0.14519	-0.02281	0.056814	-0.13657	0.084714	0.10781	-0.11744	-0.066766	0.1576
417	3.9049	-0.10126	0.060815	0.099059	0.0065294	0.27016	0.18756	-0.019817	0.28345	0.17413	-0.046816	-0.15316	-0.008669	-0.046816	0.031938	-0.008669	0	0	0	-0.14532	-0.022727	0.056782	-0.13653	0.084722	0.1079	-0.11758	-0.066853	0.1575
418	3.9143	-0.10128	0.060811	0.099166	0.0073286	0.26964	0.1877	-0.018985	0.28304	0.17434	-0.046816	-0.15316	-0.008669	-0.046816	0.031938	-0.008669	0	0	0	-0.14545	-0.022642	0.05675	-0.13649	0.08473	0.10799	-0.11772	-0.066943	0.1574
419	3.9237	-0.1013	0.060807	0.099274	0.0081393	0.26913	0.18784	-0.018141	0.28262	0.17455	-0.046816	-0.15316	-0.008669	-0.046816	0.031938	-0.008669	0	0	0	-0.14558	-0.022556	0.056718	-0.13644	0.084738	0.10808	-0.11787	-0.067035	0.1573
420	3.933	-0.10133	0.060804	0.099383	0.0089612	0.2686	0.18798	-0.017283	0.2822	0.17476	-0.046816	-0.15316	-0.008669	-0.046816	0.031938	-0.008669	0	0	0	-0.14571	-0.02247	0.056687	-0.13639	0.084746	0.10817	-0.11801	-0.06713	0.1572
421	3.9424	-0.10135	0.060801	0.099493	0.0097944	0.26808	0.18813	-0.016412	0.28178	0.17498	-0.046816	-0.15316	-0.008669	-0.046816	0.031938	-0.008669	0	0	0	-0.14584	-0.022382	0.056655	-0.13634	0.084754	0.10826	-0.11815	-0.067227	0.1571
422	3.9518	-0.10137	0.060798	0.099604	0.010639	0.26754	0.18828	-0.015527	0.28136	0.17521	-0.046816	-0.15316	-0.008669	-0.046816	0.031938	-0.008669	0	0	0	-0.14597	-0.022292	0.056624	-0.13629	0.084762	0.10836	-0.1183	-0.067328	0.157
423	3.9612	-0.10139	0.060795	0.099716	0.011494	0.26701	0.18844	-0.01463	0.28093	0.17544	-0.046816	-0.15316	-0.008669	-0.046816	0.031938	-0.008669	0	0	0	-0.14609	-0.022202	0.056594	-0.13623	0.084769	0.10845	-0.11844	-0.067431	0.1569
424	3.9706	-0.10141	0.060793	0.09983	0.01236	0.26646	0.18859	-0.013719	0.2805	0.17568	-0.046816	-0.15316	-0.008669	-0.046816	0.031938	-0.008669	0	0	0	-0.14622	-0.02211	0.056563	-0.13617	0.084777	0.10855	-0.11859	-0.067536	0.15679
425	3.98	-0.10143	0.060791	0.099944	0.013238	0.26592	0.18875	-0.012796	0.28007	0.17592	-0.046816	-0.15316	-0.008669	-0.046816	0.031938	-0.008669	0	0	0	-0.14635	-0.022018	0.056533	-0.13611	0.084784	0.10865	-0.11873	-0.067645	0.15669
